<svg width="57" height="82" viewBox="0 0 57 82" fill="none" xmlns="http://www.w3.org/2000/svg">
<path d="M27.8593 0.262481L14.2655 13.7C13.9115 14.0499 13.9115 14.6168 14.2655 14.9667C14.6196 15.3167 15.193 15.3167 15.547 14.9667L27.5938 3.0584L27.5938 42.1041C27.5938 42.5993 27.9991 43 28.5001 43C29.001 43 29.4063 42.5993 29.4063 42.1041L29.4063 3.0584L41.453 14.9667C41.8071 15.3167 42.3805 15.3167 42.7345 14.9667C42.9115 14.7918 43 14.5625 43 14.3333C43 14.1041 42.9115 13.8749 42.7345 13.6999L29.1407 0.262397C28.7868 -0.0874831 28.2133 -0.0874831 27.8593 0.262481Z" fill="#22201E"/>
<path d="M10.933 63.506H6.22895V68H5.06695V58.2H6.22895V62.47H10.933V58.2H12.095V68H10.933V63.506ZM19.1352 65.284H15.5232L14.5432 68H13.3952L17.1052 58.046H17.6372L21.3612 68H20.1432L19.1352 65.284ZM15.9012 64.276H18.7852L17.6932 61.294L17.3432 59.81H17.3292L16.9792 61.322L15.9012 64.276ZM28.5707 60.44C28.5707 60.6733 28.5333 60.9113 28.4587 61.154C28.384 61.3967 28.272 61.6253 28.1227 61.84C27.9733 62.0453 27.782 62.2273 27.5487 62.386C27.3153 62.5447 27.04 62.666 26.7227 62.75V62.806C27.0027 62.8527 27.2687 62.932 27.5207 63.044C27.782 63.156 28.0107 63.31 28.2067 63.506C28.4027 63.702 28.5613 63.94 28.6827 64.22C28.804 64.5 28.8647 64.8313 28.8647 65.214C28.8647 65.718 28.7573 66.1567 28.5427 66.53C28.3373 66.894 28.062 67.1927 27.7167 67.426C27.3807 67.6593 26.9933 67.832 26.5547 67.944C26.116 68.056 25.668 68.112 25.2107 68.112C25.052 68.112 24.8653 68.112 24.6507 68.112C24.436 68.112 24.212 68.1027 23.9787 68.084C23.7453 68.0747 23.512 68.056 23.2787 68.028C23.0453 68.0093 22.84 67.9767 22.6627 67.93V58.284C23.008 58.228 23.4093 58.1813 23.8667 58.144C24.324 58.1067 24.8233 58.088 25.3647 58.088C25.7287 58.088 26.0973 58.1207 26.4707 58.186C26.8533 58.242 27.1987 58.3587 27.5067 58.536C27.8147 58.704 28.0667 58.942 28.2627 59.25C28.468 59.558 28.5707 59.9547 28.5707 60.44ZM25.3227 67.104C25.6213 67.104 25.9107 67.0713 26.1907 67.006C26.4707 66.9313 26.718 66.8193 26.9327 66.67C27.1473 66.5113 27.3153 66.32 27.4367 66.096C27.5673 65.872 27.6327 65.606 27.6327 65.298C27.6327 64.9153 27.5533 64.6073 27.3947 64.374C27.2453 64.1407 27.0447 63.9587 26.7927 63.828C26.55 63.6973 26.2747 63.6087 25.9667 63.562C25.6587 63.5153 25.3507 63.492 25.0427 63.492H23.8247V67.006C23.89 67.0247 23.9833 67.0387 24.1047 67.048C24.226 67.0573 24.3567 67.0667 24.4967 67.076C24.6367 67.0853 24.7813 67.0947 24.9307 67.104C25.08 67.104 25.2107 67.104 25.3227 67.104ZM24.5527 62.512C24.7113 62.512 24.9027 62.5073 25.1267 62.498C25.3507 62.4887 25.5373 62.4747 25.6867 62.456C25.9107 62.3813 26.1207 62.2927 26.3167 62.19C26.5127 62.078 26.6853 61.952 26.8347 61.812C26.9933 61.6627 27.1147 61.4947 27.1987 61.308C27.292 61.112 27.3387 60.902 27.3387 60.678C27.3387 60.37 27.278 60.118 27.1567 59.922C27.0447 59.7167 26.8907 59.5533 26.6947 59.432C26.4987 59.3107 26.2747 59.2267 26.0227 59.18C25.7707 59.124 25.514 59.096 25.2527 59.096C24.9447 59.096 24.66 59.1053 24.3987 59.124C24.1467 59.1333 23.9553 59.152 23.8247 59.18V62.512H24.5527ZM30.8384 58.2H36.1724V59.236H32.0004V62.442H35.8224V63.478H32.0004V66.964H36.2424V68H30.8384V58.2ZM38.3443 58.298C38.699 58.214 39.0816 58.158 39.4923 58.13C39.903 58.102 40.309 58.088 40.7103 58.088C41.1396 58.088 41.5736 58.13 42.0123 58.214C42.4603 58.298 42.8663 58.452 43.2303 58.676C43.5943 58.9 43.8883 59.208 44.1123 59.6C44.3456 59.992 44.4623 60.4913 44.4623 61.098C44.4623 61.6953 44.355 62.1993 44.1403 62.61C43.9256 63.0207 43.641 63.3567 43.2863 63.618C42.9316 63.87 42.5256 64.052 42.0683 64.164C41.611 64.276 41.1396 64.332 40.6543 64.332C40.6076 64.332 40.5283 64.332 40.4163 64.332C40.3136 64.332 40.2016 64.332 40.0803 64.332C39.9683 64.3227 39.8563 64.3133 39.7443 64.304C39.6323 64.2947 39.553 64.2853 39.5063 64.276V68H38.3443V58.298ZM40.7383 59.096C40.4956 59.096 40.2623 59.1007 40.0383 59.11C39.8143 59.1193 39.637 59.1427 39.5063 59.18V63.24C39.553 63.2587 39.6276 63.2727 39.7303 63.282C39.833 63.282 39.9403 63.2867 40.0523 63.296C40.1643 63.296 40.2716 63.296 40.3743 63.296C40.477 63.296 40.5516 63.296 40.5983 63.296C40.9156 63.296 41.2283 63.268 41.5363 63.212C41.8536 63.1467 42.1383 63.0347 42.3903 62.876C42.6423 62.7173 42.843 62.4933 42.9923 62.204C43.151 61.9147 43.2303 61.546 43.2303 61.098C43.2303 60.7153 43.1556 60.398 43.0063 60.146C42.8663 59.8847 42.675 59.6793 42.4323 59.53C42.199 59.3713 41.933 59.2593 41.6343 59.194C41.3356 59.1287 41.037 59.096 40.7383 59.096ZM48.0948 63.016L45.1128 58.2H46.5128L48.5008 61.518L48.8508 62.316L49.1868 61.518L51.2868 58.2H52.5748L49.4948 62.918L52.7148 68H51.3568L49.1448 64.486L48.7668 63.646L48.4028 64.486L46.1348 68H44.8328L48.0948 63.016Z" fill="#22201E"/>
</svg>
