<svg width="70" height="64" viewBox="0 0 70 64" fill="none" xmlns="http://www.w3.org/2000/svg">
<path d="M44.9106 50.5204H25.618V45.3236C25.618 42.6314 26.1023 40.8402 27.0666 39.9567C28.0331 39.0753 30.3304 38.3051 33.9586 37.6572C36.9606 37.1205 38.7365 36.6296 39.2906 36.1911C39.847 35.746 40.1262 34.6006 40.1262 32.7593C40.1262 30.9878 39.8491 29.8664 39.2906 29.393C38.7387 28.9217 37.4231 28.6839 35.3374 28.6839C33.1928 28.6839 31.8424 28.9239 31.2817 29.4017C30.721 29.8838 30.4395 31.0532 30.4395 32.9055V33.9898H25.69V32.9273C25.69 29.7224 26.3489 27.5669 27.671 26.4586C28.9931 25.3459 31.5544 24.7918 35.3549 24.7918C39.0703 24.7918 41.5901 25.3525 42.9122 26.4739C44.2409 27.5974 44.9063 29.7267 44.9063 32.8684C44.9063 35.8333 44.4067 37.823 43.3922 38.8222C42.3799 39.8258 40.0608 40.6657 36.4217 41.3355C33.4175 41.8831 31.6744 42.3478 31.1878 42.7318C30.7013 43.1114 30.4592 44.1979 30.4592 45.9912V46.6828H44.9128L44.9106 50.5204ZM70 41.3006V45.04H67.0635V50.5204H62.2223V45.04H48.4428V39.601L59.5868 25.0034H67.0656V41.3071L70 41.3006ZM62.2245 28.6621H62.0739L52.4091 41.2984H62.2245V28.6621ZM42.2228 17.7384C43.3704 18.8838 43.6714 21.048 45.1244 20.8757C48.7613 20.4437 58.4611 15.1444 59.4625 11.4486C60.141 8.97239 55.6903 4.76392 54.1108 3.18874C48.7788 -2.14984 38.6078 -0.629203 31.3907 6.58344L6.58064 31.3892C-0.632012 38.6018 -2.14828 48.7685 3.1903 54.1092C4.76329 55.6844 8.97394 60.1351 11.4502 59.4631C15.1416 58.4595 20.4169 48.7707 20.8576 45.1382C21.0387 43.6743 18.881 43.3666 17.7378 42.2212C13.9329 38.4186 16.3306 29.8577 23.0916 23.0944C29.8548 16.3334 38.4179 13.9335 42.2228 17.7384ZM32.4445 58.1126H28.2339V54.4452H26.53V63.4272H28.2339V59.5482H32.4445V63.4272H34.1484V54.4452H32.4445V58.1126ZM42.609 55.1805C43.078 55.7237 43.3093 56.9367 43.3093 58.8195C43.3093 60.8746 43.078 62.1706 42.6046 62.7073C42.1334 63.2418 40.9923 63.5101 39.1815 63.5101C37.5496 63.5101 36.4981 63.2461 36.0159 62.7182C35.5381 62.1924 35.3003 61.0274 35.3003 59.2253C35.3003 57.0872 35.5338 55.739 36.0028 55.1914C36.4697 54.6438 37.6238 54.3689 39.4564 54.3689C41.0883 54.3711 42.1399 54.6416 42.609 55.1805ZM41.5836 58.9111C41.5836 57.408 41.4832 56.5156 41.2825 56.2408C41.0818 55.9659 40.4295 55.8306 39.3277 55.8306C38.1823 55.8306 37.5126 55.9746 37.3206 56.2691C37.1242 56.5658 37.0282 57.5847 37.0282 59.3235C37.0282 60.6128 37.1438 61.3873 37.3642 61.6491C37.5911 61.9109 38.2543 62.044 39.3604 62.044C40.4164 62.044 41.0512 61.8979 41.2629 61.6012C41.4789 61.3066 41.5836 60.41 41.5836 58.9111ZM50.2427 60.458C50.2427 61.1583 50.1249 61.599 49.8958 61.7779C49.6689 61.9568 49.1017 62.0484 48.2028 62.0484C47.3301 62.0484 46.7738 61.9589 46.5316 61.7822C46.2938 61.6033 46.176 61.1866 46.176 60.5212V54.4474H44.4721V60.5212C44.4721 61.7473 44.7143 62.5567 45.203 62.9342C45.6939 63.3138 46.7149 63.5079 48.2813 63.5079C49.7671 63.5079 50.7466 63.305 51.231 62.9036C51.7131 62.4978 51.9488 61.6753 51.9488 60.423V54.4474H50.2492L50.2427 60.458ZM59.2574 59.6485V59.7053C60.2522 59.7642 60.754 60.3467 60.754 61.4484V63.4294H59.0523V61.791C59.0523 60.8637 58.5963 60.4012 57.6844 60.4012H55.23V63.4294H53.5239V54.4474H57.9484C59.0523 54.4474 59.8115 54.6416 60.2282 55.0234C60.6406 55.4052 60.85 56.0968 60.85 57.096C60.85 58.0036 60.7453 58.6232 60.5359 58.9591C60.3286 59.2929 59.9032 59.522 59.2574 59.6485ZM59.1199 57.4014C59.1199 56.7622 59.0392 56.3498 58.8756 56.1644C58.712 55.979 58.352 55.8851 57.7935 55.8851H55.2278V58.9722H57.6735C58.2604 58.9722 58.64 58.8653 58.832 58.6581C59.024 58.4464 59.1199 58.0297 59.1199 57.4014ZM65.905 58.1868C64.7705 58.1257 64.1051 58.0385 63.9044 57.9228C63.7015 57.8072 63.6011 57.469 63.6011 56.8996C63.6011 56.4218 63.7255 56.1099 63.972 55.9593C64.2164 55.811 64.7443 55.7324 65.5559 55.7324C66.2388 55.7324 66.6773 55.7957 66.8606 55.9266C67.0482 56.0597 67.1595 56.3738 67.1944 56.88C67.1944 56.9214 67.1987 56.9803 67.2096 57.0632H68.8786V56.7207C68.8786 55.7913 68.643 55.1652 68.1739 54.8467C67.7049 54.5281 66.7929 54.3667 65.4425 54.3667C64.0178 54.3667 63.0666 54.539 62.5866 54.8881C62.1089 55.2372 61.8754 55.9331 61.8754 56.9847C61.8754 58.0123 62.0739 58.6777 62.4667 58.9919C62.8681 59.306 63.7757 59.498 65.1916 59.5831L66.1362 59.642C66.6664 59.6725 67.0089 59.7598 67.1747 59.8994C67.3362 60.0391 67.4147 60.3314 67.4147 60.7634C67.4147 61.3546 67.3056 61.7255 67.0962 61.8913C66.8846 62.0528 66.4002 62.1313 65.6345 62.1313C64.6571 62.1313 64.0571 62.0637 63.8389 61.9219C63.6186 61.7844 63.5139 61.3983 63.5139 60.7699L63.5073 60.5801H61.8471L61.8536 60.9074C61.8536 61.9524 62.0827 62.644 62.5452 62.9843C63.0077 63.3269 63.948 63.4949 65.3574 63.4949C66.9282 63.4949 67.947 63.3225 68.403 62.9734C68.859 62.6244 69.0902 61.852 69.0902 60.6587C69.0902 59.6922 68.8939 59.0529 68.5012 58.7431C68.1063 58.4508 67.2424 58.2588 65.905 58.1868Z" fill="#22201E"/>
</svg>
