<svg width="80" height="82" viewBox="0 0 80 82" fill="none" xmlns="http://www.w3.org/2000/svg">
<path d="M25.8505 67.2473C29.6379 67.2473 32.5819 70.3567 32.5819 74.1441C32.5819 77.9316 29.4725 81.041 25.8505 81.041C22.2284 81.041 19.119 77.9316 19.119 74.1441C19.119 70.3567 22.2284 67.2473 25.8505 67.2473ZM25.8505 77.5843C27.7525 77.5843 29.1252 76.0296 29.1252 74.1276C29.1252 72.2256 27.5705 70.6709 25.8505 70.6709C24.1304 70.6709 22.5757 72.2256 22.5757 74.1276C22.5757 76.0296 24.1304 77.5843 25.8505 77.5843Z" fill="white"/>
<path d="M62.5838 67.2473C66.3713 67.2473 69.3152 70.3567 69.3152 74.1441C69.3152 77.9316 66.2059 81.041 62.5838 81.041C58.7963 81.041 55.8524 77.9316 55.8524 74.1441C55.8524 70.3567 58.9617 67.2473 62.5838 67.2473ZM62.5838 77.5843C64.4858 77.5843 65.8586 76.0296 65.8586 74.1276C65.8586 72.2256 64.3039 70.6709 62.5838 70.6709C60.6818 70.6709 59.309 72.2256 59.309 74.1276C59.309 76.0462 60.8472 77.5843 62.5838 77.5843Z" fill="white"/>
<path d="M9.64234 0L12.3217 10.5189H80L67.5129 47.5171C71.6973 48.129 74.8232 51.6684 74.8232 56.2167C74.8232 61.2115 71.0358 65.1809 66.2063 65.1809H19.3012V61.9062H66.2063C69.1338 61.9062 71.3831 59.4914 71.3831 56.3821C71.3831 53.2727 68.9684 50.858 66.2063 50.858H19.3012H19.1358L6.89684 3.44015H0V0H9.64234ZM21.7159 47.4178H63.957L75.1706 13.9591H13.2644L21.7159 47.4178Z" fill="white"/>
<path d="M54.6448 22.062H58.1014V41.5452H54.6448V22.062Z" fill="white"/>
<path d="M42.3897 22.062H45.8464V41.5452H42.3897V22.062Z" fill="white"/>
<path d="M30.1514 22.062H33.6081V41.5452H30.1514V22.062Z" fill="white"/>
</svg>
