<svg width="88" height="95" viewBox="0 0 88 95" fill="none" xmlns="http://www.w3.org/2000/svg">
<path d="M41.0667 66.3978V88.5304H38.1333V66.3978H41.0667ZM44 66.3978V88.5304H46.9333V66.3978H44ZM49.8667 66.3978V88.5304H52.8V66.3978H49.8667ZM55.7333 66.3978V88.5304H58.6667V66.3978H55.7333ZM61.6 66.3978V88.5304H64.5333V66.3978H61.6ZM67.4667 66.3978V88.5304H70.4V66.3978H67.4667ZM73.3333 66.3978V88.5304H76.2667V66.3978H73.3333ZM79.2 66.3978V88.5304H82.1333V66.3978H79.2ZM88 61.6551C88 61.2358 87.8455 60.8337 87.5704 60.5372C87.2954 60.2408 86.9223 60.0742 86.5333 60.0742H85.0667V82.2068H88V61.6551ZM88 93.2731V85.3686H85.0667V91.6922H35.2V66.3978H29.3333V69.5596H32.2667V85.3686H29.3333V88.5304H32.2667V91.6922H22V66.3978H19.0667V91.6922H8.8V88.5304H11.7333V85.3686H8.8V69.5596H11.7333V66.3978H7.33333C6.94435 66.3978 6.5713 66.5644 6.29624 66.8608C6.02119 67.1573 5.86667 67.5594 5.86667 67.9787V93.2731C5.86667 93.6924 6.02119 94.0945 6.29624 94.391C6.5713 94.6874 6.94435 94.854 7.33333 94.854H86.5333C86.9223 94.854 87.2954 94.6874 87.5704 94.391C87.8455 94.0945 88 93.6924 88 93.2731ZM0 61.6551V44.2652H2.93333V53.7506H5.86667V56.9124H2.93333V60.0742H13.2V31.618H2.93333V34.7798H5.86667V37.9416H2.93333V41.1034H0V30.0371C0.000157042 29.7314 0.0825556 29.4322 0.237215 29.176C0.391874 28.9197 0.612157 28.7172 0.871383 28.5931L0.892467 28.5831L0.897783 28.5805L36.6813 11.437C36.6725 11.3145 36.6667 11.1912 36.6667 11.0663V7.9045H39.6V10.0387L40.471 9.62136C40.6586 9.53147 40.8616 9.48502 41.0669 9.48502C41.2721 9.48502 41.4751 9.53147 41.6627 9.62136L42.5333 10.0387V8.55919L40.0296 5.86059C39.8934 5.71379 39.7853 5.53951 39.7116 5.3477C39.6379 5.15589 39.6 4.95031 39.6 4.7427V0H42.5333V4.08801L45.0371 6.78661C45.1733 6.93341 45.2813 7.1077 45.355 7.2995C45.4287 7.49131 45.4667 7.69689 45.4667 7.9045V11.0663C45.4667 11.1912 45.4608 11.3145 45.452 11.437L81.2359 28.5797L81.2412 28.5823L81.2623 28.5924C81.5216 28.7166 81.7419 28.9192 81.8965 29.1756C82.0511 29.432 82.1334 29.7313 82.1333 30.0371V61.6551C82.1333 62.0744 81.9788 62.4765 81.7038 62.773C81.4287 63.0694 81.0557 63.236 80.6667 63.236H1.46667C1.07768 63.236 0.70463 63.0694 0.429577 62.773C0.154523 62.4765 0 62.0744 0 61.6551ZM26.4 31.618H16.1333V60.0742H26.4V56.9124H23.4667V53.7506H26.4V37.9416H23.4667V34.7798H26.4V31.618ZM79.2 31.618H29.3333V60.0742H79.2V31.618ZM73.755 28.4562L44.2587 14.3255C43.8484 14.794 43.3536 15.1673 42.8047 15.4223C42.2558 15.6774 41.6644 15.809 41.0667 15.809C40.4689 15.809 39.8775 15.6774 39.3286 15.4223C38.7797 15.1673 38.285 14.794 37.8747 14.3255L8.37833 28.4562H73.755ZM35.2 41.1034H32.2667V56.9124H35.2V41.1034ZM35.2 34.7798H32.2667V37.9416H35.2V34.7798ZM41.0667 34.7798H38.1333V56.9124H41.0667V34.7798ZM46.9333 34.7798H44V56.9124H46.9333V34.7798ZM52.8 34.7798H49.8667V56.9124H52.8V34.7798ZM58.6667 34.7798H55.7333V56.9124H58.6667V34.7798ZM64.5333 34.7798H61.6V56.9124H64.5333V34.7798ZM70.4 34.7798H67.4667V56.9124H70.4V34.7798ZM76.2667 34.7798H73.3333V56.9124H76.2667V34.7798Z" fill="white"/>
</svg>
