<svg width="92" height="92" viewBox="0 0 92 92" fill="none" xmlns="http://www.w3.org/2000/svg">
<path d="M13.189 81.5959C13.189 82.18 13.3622 82.751 13.6868 83.2367C14.0113 83.7224 14.4725 84.1009 15.0122 84.3245C15.5518 84.548 16.1456 84.6065 16.7185 84.4925C17.2914 84.3786 17.8177 84.0973 18.2307 83.6842C18.6437 83.2712 18.925 82.745 19.039 82.1721C19.1529 81.5992 19.0944 81.0054 18.8709 80.4657C18.6474 79.9261 18.2688 79.4648 17.7832 79.1403C17.2975 78.8158 16.7265 78.6426 16.1424 78.6426C15.3594 78.6434 14.6087 78.9549 14.055 79.5085C13.5013 80.0622 13.1899 80.8129 13.189 81.5959ZM16.9395 81.5959C16.9395 81.7536 16.8927 81.9077 16.8051 82.0388C16.7175 82.1698 16.5931 82.272 16.4474 82.3323C16.3018 82.3927 16.1415 82.4085 15.9869 82.3777C15.8322 82.3469 15.6902 82.271 15.5787 82.1596C15.4673 82.0481 15.3913 81.906 15.3606 81.7514C15.3298 81.5968 15.3456 81.4365 15.406 81.2909C15.4663 81.1452 15.5684 81.0207 15.6995 80.9332C15.8306 80.8456 15.9847 80.7988 16.1424 80.7988C16.3535 80.7993 16.5559 80.8835 16.7052 81.0329C16.8544 81.1823 16.9383 81.3847 16.9386 81.5959H16.9395Z" fill="white"/>
<path d="M81.1871 5.4467C81.0977 5.26718 80.9598 5.11629 80.789 5.01111C80.6183 4.90593 80.4215 4.85067 80.2209 4.85157H31.7968C31.5962 4.85067 31.3994 4.90593 31.2287 5.01111C31.0579 5.11629 30.92 5.26718 30.8306 5.4467L24.5311 18.17C24.3553 18.3688 24.2581 18.6249 24.2578 18.8902V57.0892C23.3 57.6671 22.4947 58.4661 21.9091 59.4191C21.3234 60.3722 20.9747 61.4517 20.8919 62.5672C20.289 63.027 19.6099 63.3771 18.8857 63.6017L18.8823 63.5751C18.7754 63.2227 18.5585 62.9138 18.2633 62.6936C17.9682 62.4735 17.6103 62.3536 17.2421 62.3516H5.98106C5.71573 62.3527 5.45422 62.415 5.21689 62.5337C4.97956 62.6523 4.7728 62.8241 4.6127 63.0357C4.4526 63.2473 4.34347 63.493 4.2938 63.7537C4.24413 64.0143 4.25526 64.2829 4.32632 64.5385L10.2761 85.8951C10.3778 86.2558 10.5945 86.5734 10.8933 86.7997C11.192 87.0259 11.5565 87.1484 11.9312 87.1484H23.8463C24.1144 87.1495 24.379 87.0875 24.6187 86.9676C24.8584 86.8476 25.0666 86.673 25.2265 86.4578C25.3864 86.2426 25.4935 85.9929 25.5391 85.7287C25.5848 85.4646 25.5678 85.1934 25.4894 84.937L23.9383 79.8519L29.5553 76.3016C30.2789 75.9034 31.1266 75.7947 31.9272 75.9972C31.9596 76.0053 31.9923 76.0121 32.0252 76.0172L41.9428 77.5508C44.7923 77.992 47.7049 77.3794 50.1351 75.8276L69.5597 63.4297H86.6588C86.9316 63.4297 87.1933 63.3213 87.3862 63.1284C87.5791 62.9355 87.6875 62.6738 87.6875 62.401V19.2454C87.7704 18.9813 87.748 18.6953 87.6251 18.4473L81.1871 5.4467ZM57.1406 7.00782H79.5516L84.8932 17.7891H57.1406V7.00782ZM56.0086 20.0037C56.1269 20.0035 56.2444 19.9838 56.3563 19.9453H63.6094V27.6719H49.0547V19.9453H55.6611C55.7729 19.9838 55.8903 20.0035 56.0086 20.0037ZM12.264 84.9922L6.55858 64.5078H16.8906L23.1797 84.9922H12.264ZM48.9751 74.0463C46.9846 75.3101 44.6017 75.8048 42.2727 75.4377L32.4018 73.9021C31.0737 73.5784 29.6723 73.7697 28.4796 74.4373C28.4628 74.4469 28.4461 74.4553 28.4298 74.4647L23.2801 77.719L19.5254 65.6398C20.6867 65.2715 21.7574 64.6628 22.6679 63.8534C22.7807 63.7603 22.8715 63.6434 22.9339 63.5112C22.9964 63.3789 23.0288 63.2345 23.0291 63.0883C23.0306 62.4459 23.159 61.81 23.4067 61.2173C23.6545 60.6246 24.0169 60.0866 24.473 59.6342C24.9291 59.1818 25.4701 58.8239 26.0648 58.581C26.6596 58.3381 27.2964 58.215 27.9389 58.2188H28.2756C29.3267 58.2131 30.3634 57.9733 31.3102 57.5167C32.257 57.0602 33.0902 56.3984 33.7493 55.5795L38.0206 50.3226C38.4324 49.8106 39.0215 49.4719 39.6711 49.3736C40.3207 49.2753 40.9836 49.4245 41.5285 49.7918L41.6003 49.8347C42.1566 50.207 42.5582 50.7691 42.7302 51.4159C42.9021 52.0627 42.8326 52.7501 42.5347 53.3494C40.8277 56.7428 38.2892 61.7947 38.2892 61.7947C38.2067 61.9655 38.1677 62.1541 38.1757 62.3436C38.1837 62.5331 38.2384 62.7177 38.3351 62.8809C38.4297 63.042 38.5633 63.1766 38.7236 63.2725C38.8839 63.3684 39.0657 63.4225 39.2524 63.4297H65.6682L48.9751 74.0463ZM49.5937 61.2734V50.9774L50.3069 51.7234C50.4071 51.8284 50.5274 51.9123 50.6606 51.97C50.7938 52.0276 50.9373 52.058 51.0825 52.0592C51.2274 52.0596 51.3709 52.0311 51.5048 51.9756C51.6386 51.9201 51.7601 51.8386 51.8623 51.7358L53.7427 49.8194L55.5987 51.732C55.6992 51.8356 55.8195 51.918 55.9524 51.9742C56.0853 52.0305 56.2282 52.0595 56.3725 52.0595C56.5169 52.0595 56.6597 52.0305 56.7927 51.9742C56.9256 51.918 57.0459 51.8356 57.1464 51.732L59.0022 49.8198L60.8821 51.7362C60.9838 51.8392 61.105 51.9209 61.2387 51.9765C61.3724 52.032 61.5159 52.0603 61.6607 52.0596C61.8001 52.0581 61.9376 52.0274 62.0645 51.9695C62.1914 51.9117 62.3048 51.828 62.3974 51.7238L63.0703 50.9774V61.2734H49.5937ZM85.5312 61.2734H65.2266V48.2752C65.2346 48.0624 65.1772 47.8522 65.062 47.6731C64.9468 47.4939 64.7795 47.3545 64.5825 47.2735C64.3855 47.1926 64.1684 47.174 63.9605 47.2204C63.7526 47.2668 63.564 47.3759 63.4202 47.5329L61.6301 49.4279L59.7641 47.5507C59.663 47.4526 59.5431 47.3761 59.4115 47.3258C59.28 47.2754 59.1397 47.2523 58.9989 47.2578H58.9961C58.8542 47.2525 58.7127 47.276 58.5801 47.3271C58.4476 47.3781 58.3269 47.4555 58.2252 47.5547L56.3744 49.4477L54.5236 47.5624C54.4224 47.4622 54.3019 47.3835 54.1694 47.3311C54.0369 47.2788 53.8952 47.2538 53.7528 47.2578H53.7499C53.6085 47.2523 53.4675 47.2754 53.3352 47.3257C53.203 47.376 53.0822 47.4526 52.9803 47.5507L51.1089 49.4432L49.31 47.5405C49.1618 47.3827 48.9696 47.2729 48.7584 47.2254C48.5472 47.1779 48.3265 47.1948 48.125 47.2738C47.9234 47.3529 47.7502 47.4906 47.6277 47.6691C47.5051 47.8476 47.4389 48.0587 47.4375 48.2752V61.2734H41.0005C41.8869 59.4766 43.3501 56.5611 44.4606 54.3526C44.9935 53.2807 45.1193 52.0518 44.8144 50.8942C44.5095 49.7366 43.7948 48.729 42.803 48.0587L42.7311 48.0015C41.7428 47.33 40.5383 47.0542 39.3563 47.2288C38.1742 47.4034 37.1009 48.0156 36.349 48.9442L32.0778 54.2189C31.6205 54.7891 31.0421 55.2503 30.3845 55.5692C29.7268 55.8881 29.0065 56.0566 28.2756 56.0625H27.9389C27.4261 56.0629 26.9149 56.1183 26.414 56.228V19.9453H33.0625C33.3484 19.9453 33.6226 19.8317 33.8248 19.6295C34.027 19.4274 34.1406 19.1531 34.1406 18.8672C34.1406 18.5813 34.027 18.307 33.8248 18.1048C33.6226 17.9027 33.3484 17.7891 33.0625 17.7891H27.1245L32.4661 7.00782H54.9844V17.7891H40.25C39.9641 17.7891 39.6898 17.9027 39.4876 18.1048C39.2854 18.307 39.1719 18.5813 39.1719 18.8672C39.1719 19.1531 39.2854 19.4274 39.4876 19.6295C39.6898 19.8317 39.9641 19.9453 40.25 19.9453H46.8984V28.7112C46.8962 29.0008 47.0074 29.2799 47.2083 29.4886C47.4091 29.6973 47.6836 29.8192 47.9731 29.8281H64.7725C65.3678 29.8281 65.7656 29.307 65.7656 28.7112V19.9453H85.5312V61.2734Z" fill="white"/>
<path d="M31.625 24.0356C31.3391 24.0356 31.0648 24.1492 30.8626 24.3514C30.6605 24.5536 30.5469 24.8278 30.5469 25.1138V26.2458C30.5469 26.5317 30.6605 26.806 30.8626 27.0081C31.0648 27.2103 31.3391 27.3239 31.625 27.3239C31.9109 27.3239 32.1852 27.2103 32.3874 27.0081C32.5895 26.806 32.7031 26.5317 32.7031 26.2458V25.1138C32.7031 24.8278 32.5895 24.5536 32.3874 24.3514C32.1852 24.1492 31.9109 24.0356 31.625 24.0356Z" fill="white"/>
<path d="M31.625 28.5806C31.3391 28.5806 31.0648 28.6942 30.8626 28.8963C30.6605 29.0985 30.5469 29.3728 30.5469 29.6587V41.5181C30.5469 41.804 30.6605 42.0782 30.8626 42.2804C31.0648 42.4826 31.3391 42.5962 31.625 42.5962C31.9109 42.5962 32.1852 42.4826 32.3874 42.2804C32.5895 42.0782 32.7031 41.804 32.7031 41.5181V29.6587C32.7031 29.3728 32.5895 29.0985 32.3874 28.8963C32.1852 28.6942 31.9109 28.5806 31.625 28.5806Z" fill="white"/>
</svg>
