<svg width="80" height="85" viewBox="0 0 80 85" fill="none" xmlns="http://www.w3.org/2000/svg">
<path d="M57.0726 54.3062C62.189 48.5391 65.3057 40.9577 65.3057 32.6589C65.3057 24.0246 61.9323 16.1684 56.4421 10.3225V10.3214C56.4376 10.3146 56.4309 10.3123 56.4275 10.3067C50.7087 4.22652 42.6964 0.334473 33.7844 0.0292804L33.7833 0.0281543L33.1471 0.0112617C32.9827 0.00563085 32.8183 0 32.6528 0C32.4873 0 32.3229 0.00563085 32.1585 0.0112617L31.5246 0.0281543L31.5235 0.0292804C22.6115 0.334473 14.5992 4.22652 8.88044 10.3067C8.87594 10.3123 8.86919 10.3146 8.86581 10.3214C8.86581 10.3214 8.86581 10.3225 8.86468 10.3236C3.37338 16.1684 0 24.0246 0 32.6589C0 40.9577 3.11666 48.5391 8.23302 54.3062C8.23977 54.3163 8.23977 54.3276 8.24765 54.3377C8.26792 54.3659 8.2972 54.3794 8.31859 54.4053C14.0677 60.8335 22.3165 64.9744 31.5224 65.2897L31.5235 65.2908L32.1574 65.3077C32.3229 65.3122 32.4873 65.3179 32.6528 65.3179C32.8183 65.3179 32.9827 65.3122 33.1471 65.3066L33.781 65.2897L33.7822 65.2886C42.9982 64.9721 51.2559 60.8233 57.0051 54.3816C57.0197 54.3625 57.0434 54.3569 57.0569 54.3366C57.0659 54.3276 57.0659 54.3163 57.0726 54.3062ZM2.28007 33.7851H15.795C15.9222 38.5589 16.8545 43.1976 18.5142 47.5435C15.3119 48.7024 12.2504 50.2565 9.3815 52.1957C5.16253 47.1764 2.53679 40.7786 2.28007 33.7851ZM9.99627 12.4138C12.7977 14.2359 15.7803 15.6954 18.8914 16.7856C16.9862 21.4107 15.9323 26.3974 15.795 31.5328H2.28007C2.54917 24.2048 5.41812 17.5322 9.99627 12.4138ZM63.0256 31.5328H49.5107C49.3733 26.3974 48.3194 21.4107 46.4143 16.7856C49.5253 15.6954 52.508 14.2359 55.3094 12.4138C59.8876 17.5322 62.7565 24.2048 63.0256 31.5328ZM31.5269 16.8509C28.2717 16.7585 25.0762 16.2732 21.9889 15.406C24.2712 10.7234 27.4937 6.49688 31.5269 2.97759V16.8509ZM31.5269 19.1032V31.5328H18.0469C18.1854 26.6362 19.2123 21.8871 21.0487 17.4838C24.4333 18.4647 27.9474 19.0075 31.5269 19.1032ZM33.7788 19.1032C37.3582 19.0075 40.8723 18.4658 44.2581 17.4838C46.0945 21.8871 47.1214 26.6362 47.2599 31.5328H33.7788V19.1032ZM33.7788 16.8509V2.97759C37.812 6.49688 41.0345 10.7234 43.3168 15.406C40.2294 16.2732 37.0339 16.7585 33.7788 16.8509ZM45.4989 14.7213C43.3359 10.1885 40.3341 6.0588 36.6173 2.51924C43.211 3.38189 49.1436 6.36399 53.7128 10.7606C51.1186 12.407 48.3667 13.7314 45.4989 14.7213ZM19.8068 14.7213C16.9389 13.7314 14.1871 12.407 11.594 10.7606C16.162 6.36399 22.0958 3.38189 28.6895 2.51924C24.9715 6.0588 21.9697 10.1885 19.8068 14.7213ZM18.0469 33.7851H31.5269V45.0896C27.8033 45.1887 24.1552 45.7698 20.649 46.825C19.0648 42.7089 18.1741 38.3112 18.0469 33.7851ZM31.5269 47.3419V62.3403C27.2099 58.5732 23.8253 53.9965 21.5238 48.9197C24.752 47.9681 28.1051 47.4388 31.5269 47.3419ZM33.7788 62.3403V47.3419C37.2006 47.4377 40.5537 47.9681 43.7818 48.9186C41.4804 53.9965 38.0957 58.5732 33.7788 62.3403ZM33.7788 45.0896V33.7851H47.2588C47.1315 38.3112 46.2409 42.7089 44.6556 46.8262C41.1505 45.7698 37.5023 45.1887 33.7788 45.0896ZM49.5107 33.7851H63.0256C62.7689 40.7786 60.1443 47.1764 55.9242 52.1957C53.0552 50.2565 49.9937 48.7024 46.7915 47.5435C48.4523 43.1976 49.3835 38.5589 49.5107 33.7851ZM10.9117 53.8827C13.5757 52.1124 16.412 50.6889 19.3755 49.6247C21.5655 54.5348 24.7092 59.0091 28.6883 62.7986C21.7626 61.8921 15.5641 58.6487 10.9117 53.8827ZM36.6173 62.7986C40.5965 59.0102 43.7402 54.5359 45.9301 49.6247C48.8937 50.6889 51.7288 52.1124 54.394 53.8827C49.7415 58.6487 43.5431 61.8921 36.6173 62.7986Z" fill="white"/>
<path d="M79.3715 80.4385L64.7467 65.8109C67.5795 62.311 69.2852 57.8637 69.2852 53.02C69.2852 41.7937 60.1524 32.6592 48.9282 32.6592C37.704 32.6592 28.5712 41.7936 28.5712 53.0199C28.5712 64.2462 37.7041 73.3808 48.9283 73.3808C53.7711 73.3808 58.2175 71.6748 61.7167 68.8414L76.3416 83.469C76.7595 83.887 77.308 84.097 77.8566 84.097C78.4053 84.097 78.9538 83.887 79.3717 83.469C80.2095 82.6311 80.2095 81.2765 79.3715 80.4385ZM48.9283 69.0943C40.0654 69.0943 32.8569 61.8844 32.8569 53.0199C32.8569 44.1554 40.0654 36.9456 48.9283 36.9456C57.7911 36.9456 64.9996 44.1554 64.9996 53.0199C64.9996 61.8844 57.791 69.0943 48.9283 69.0943Z" fill="white"/>
</svg>
