<svg width="70" height="70" viewBox="0 0 70 70" fill="none" xmlns="http://www.w3.org/2000/svg">
<g clip-path="url(#clip0)">
<path d="M60.7941 49.7519C60.7941 48.0473 60.0199 46.5091 58.7981 45.4816C60.4655 44.5162 61.5904 42.7139 61.5904 40.6524C61.5904 37.577 59.0884 35.075 56.0131 35.075H47.9564L48.3989 34.3592C48.8117 33.6913 49.0297 32.9235 49.0297 32.1386V29.8768C49.0297 29.3092 48.5697 28.8491 48.0021 28.8491C47.4344 28.8491 46.9744 29.3092 46.9744 29.8768V32.1386C46.9744 32.5415 46.8625 32.9357 46.6505 33.2785L45.5401 35.075H44.4388C43.8711 35.075 43.4111 35.5351 43.4111 36.1027C43.4111 36.6702 43.8711 37.1303 44.4388 37.1303H46.1102C46.1109 37.1303 46.1116 37.1305 46.1121 37.1305C46.1128 37.1305 46.1135 37.1303 46.1143 37.1303H56.0131C57.9551 37.1303 59.5351 38.7103 59.5351 40.6524C59.5351 42.5944 57.9551 44.1744 56.0131 44.1744H55.5747C55.5342 44.1744 55.4943 44.1774 55.4548 44.1819C55.3754 44.1786 55.2958 44.1744 55.2167 44.1744C54.649 44.1744 54.189 44.6345 54.189 45.202C54.189 45.7696 54.649 46.2297 55.2167 46.2297C55.2926 46.2297 55.3695 46.2322 55.445 46.237C57.2919 46.3547 58.7386 47.8985 58.7386 49.7517C58.7386 51.6937 57.1587 53.2737 55.2167 53.2737H54.7325C54.1648 53.2737 53.7048 53.7339 53.7048 54.3014C53.7048 54.869 54.1648 55.3291 54.7325 55.3291H55.1026C56.6146 55.3291 57.8448 56.5593 57.8448 58.0712C57.8448 59.5832 56.6146 60.8134 55.1026 60.8134H53.2785C52.7108 60.8134 52.2509 61.2735 52.2509 61.8411C52.2509 62.4086 52.7108 62.8687 53.2785 62.8687H53.5326C54.932 62.8687 56.0703 64.0072 56.0703 65.4065C56.0703 66.8058 54.9318 67.9444 53.5326 67.9444H51.0482C50.4805 67.9444 50.0205 68.4046 50.0205 68.9721C50.0205 69.5397 50.4805 69.9998 51.0482 69.9998H53.5326C56.0651 69.9998 58.1257 67.9392 58.1257 65.4065C58.1257 64.2833 57.72 63.2538 57.048 62.4548C58.7263 61.7069 59.8998 60.024 59.8998 58.0712C59.8998 56.6211 59.2521 55.3202 58.232 54.4398C59.7719 53.4461 60.7941 51.7168 60.7941 49.7519Z" fill="#22201E"/>
<path d="M46.6688 67.9448H38.3198C36.0978 67.9448 34.0089 67.0796 32.438 65.5084C31.9073 64.9777 31.2018 64.6856 30.4513 64.6856H24.3808C24.3829 64.6329 24.3848 64.5803 24.3848 64.5272V50.3906C24.3848 49.823 23.9248 49.3629 23.3571 49.3629C22.7894 49.3629 22.3294 49.823 22.3294 50.3906V64.5272C22.3294 65.6449 21.4202 66.5541 20.3026 66.5541H12.4918C11.3741 66.5541 10.4648 65.6449 10.4648 64.5272V40.7589C10.4648 39.6412 11.3741 38.7321 12.4918 38.7321H20.3027C21.4203 38.7321 22.3296 39.6413 22.3296 40.7589V46.0109C22.3296 46.5785 22.7896 47.0386 23.3572 47.0386C23.9249 47.0386 24.3849 46.5785 24.3849 46.0109V40.7589C24.3849 40.7059 24.3829 40.6532 24.3809 40.6006H27.7367C28.0093 40.6006 28.2706 40.4924 28.4635 40.2996L37.9035 30.8596C38.4889 30.2741 38.8114 29.4955 38.8114 28.6676V20.3979C38.8114 19.6531 39.4175 19.047 40.1622 19.047H42.7251C43.86 19.047 44.9273 19.4891 45.73 20.2916C46.5326 21.0943 46.9747 22.1614 46.9747 23.2965V25.4974C46.9747 26.0649 47.4347 26.525 48.0023 26.525C48.57 26.525 49.03 26.0649 49.03 25.4974V23.2966C49.03 21.6125 48.3742 20.0292 47.1832 18.8383C45.9924 17.6476 44.4091 16.9917 42.7251 16.9917H40.1622C38.284 16.9917 36.7561 18.5198 36.7561 20.3979V28.6676C36.7561 28.9466 36.6474 29.209 36.4501 29.4063L27.3113 38.5453H23.7302C23.0022 37.422 21.7385 36.6767 20.303 36.6767H12.4918C10.2408 36.6767 8.40948 38.508 8.40948 40.7589V64.527C8.40948 66.778 10.2408 68.6093 12.4918 68.6093H20.3027C21.7381 68.6093 23.0018 67.8641 23.7299 66.7408H30.4514C30.653 66.7408 30.8424 66.8191 30.9847 66.9616C32.944 68.9209 35.5491 70 38.3199 70H46.669C47.2367 70 47.6966 69.5399 47.6966 68.9723C47.6966 68.4048 47.2365 67.9448 46.6688 67.9448Z" fill="#22201E"/>
<path d="M13.0133 60.958C13.0133 62.824 14.5314 64.3419 16.3972 64.3419C18.2632 64.3419 19.7812 62.8238 19.7812 60.958C19.7812 59.0922 18.2632 57.574 16.3972 57.574C14.5314 57.5741 13.0133 59.0922 13.0133 60.958ZM16.3972 59.6294C17.1299 59.6294 17.7259 60.2255 17.7259 60.9581C17.7259 61.6908 17.1297 62.2867 16.3972 62.2867C15.6647 62.2867 15.0686 61.6907 15.0686 60.9581C15.0686 60.2256 15.6647 59.6294 16.3972 59.6294Z" fill="#22201E"/>
<path d="M17.4248 54.0215V42.5345C17.4248 41.967 16.9649 41.5068 16.3972 41.5068C15.8295 41.5068 15.3695 41.967 15.3695 42.5345V54.0215C15.3695 54.589 15.8295 55.0492 16.3972 55.0492C16.9649 55.0492 17.4248 54.5892 17.4248 54.0215Z" fill="#22201E"/>
<path d="M35.514 7.98045L36.9239 9.00496C37.0544 9.09965 37.1086 9.26654 37.0586 9.42L36.5201 11.0774C36.1891 12.096 36.5351 13.161 37.4016 13.7905C37.8349 14.1052 38.3313 14.2626 38.8279 14.2626C39.3244 14.2626 39.821 14.1052 40.2541 13.7905L41.6641 12.7661C41.7947 12.6713 41.9699 12.6713 42.1006 12.7661L43.5106 13.7905C44.3767 14.4201 45.4965 14.4201 46.3631 13.7905C47.2295 13.161 47.5756 12.096 47.2446 11.0774L46.7061 9.41987C46.6562 9.2664 46.7103 9.09965 46.8408 9.00496L48.2507 7.98059C49.1171 7.35111 49.4634 6.28617 49.1325 5.26768C48.8014 4.24906 47.8956 3.59094 46.8245 3.59094H45.0817C44.9203 3.59094 44.7785 3.4879 44.7286 3.33444L44.1901 1.67702C43.8592 0.658118 42.9535 0 41.8824 0C40.8113 0 39.9055 0.658118 39.5745 1.67674L39.036 3.33402C38.9861 3.48763 38.8443 3.59067 38.6829 3.59067H36.9401C35.8691 3.59067 34.9632 4.24892 34.6321 5.26741C34.3013 6.28603 34.6476 7.35097 35.514 7.98045ZM36.5871 5.90264C36.6251 5.78563 36.7172 5.646 36.9402 5.646H38.683C39.7374 5.646 40.6649 4.97226 40.9909 3.96926L41.5294 2.31184C41.5983 2.09973 41.7595 2.0552 41.8825 2.0552C42.0055 2.0552 42.1667 2.09973 42.2356 2.31184L42.7741 3.9694C43.1001 4.97226 44.0274 5.646 45.082 5.646H46.8248C47.0478 5.646 47.1399 5.78549 47.1779 5.90264C47.2158 6.01966 47.2234 6.18655 47.043 6.31755L45.6331 7.34193C44.7798 7.96181 44.4256 9.0521 44.7516 10.055L45.2901 11.7125C45.359 11.9245 45.2548 12.0552 45.1553 12.1276C45.0559 12.1999 44.8993 12.2586 44.7189 12.1276L43.3089 11.1032C42.4557 10.4834 41.3095 10.4834 40.4564 11.1032L39.0464 12.1277C38.8664 12.2588 38.7096 12.2 38.61 12.1277C38.5104 12.0554 38.4062 11.9246 38.4752 11.7125L39.0137 10.0552C39.3396 9.05224 38.9853 7.96181 38.1321 7.3422L36.722 6.31755C36.5416 6.18655 36.5492 6.01966 36.5871 5.90264Z" fill="#22201E"/>
<path d="M29.7728 9.56217H30.9112C31.4788 9.56217 31.9388 9.10205 31.9388 8.5345C31.9388 7.96696 31.4788 7.50684 30.9112 7.50684H29.7728C29.2051 7.50684 28.7451 7.96696 28.7451 8.5345C28.7451 9.10205 29.2052 9.56217 29.7728 9.56217Z" fill="#22201E"/>
<path d="M29.8643 4.39422L30.9041 4.85722C31.0399 4.91765 31.1819 4.94629 31.3216 4.94629C31.715 4.94629 32.0905 4.71897 32.2609 4.3364C32.4918 3.81791 32.2586 3.21049 31.7401 2.97961L30.7002 2.51661C30.182 2.28573 29.5743 2.51894 29.3435 3.03743C29.1127 3.55578 29.3458 4.16334 29.8643 4.39422Z" fill="#22201E"/>
<path d="M30.9041 12.212L29.8643 12.675C29.3458 12.9058 29.1127 13.5134 29.3435 14.0318C29.5139 14.4145 29.8894 14.6416 30.2827 14.6416C30.4225 14.6416 30.5645 14.613 30.7002 14.5526L31.7401 14.0896C32.2586 13.8587 32.4917 13.2511 32.2609 12.7328C32.0301 12.214 31.4224 11.9811 30.9041 12.212Z" fill="#22201E"/>
<path d="M52.6624 7.50684C52.0948 7.50684 51.6348 7.96696 51.6348 8.5345C51.6348 9.10205 52.0948 9.56217 52.6624 9.56217H53.8008C54.3685 9.56217 54.8285 9.10205 54.8285 8.5345C54.8285 7.96696 54.3685 7.50684 53.8008 7.50684H52.6624Z" fill="#22201E"/>
<path d="M52.2519 4.94625C52.3917 4.94625 52.5337 4.91761 52.6695 4.85719L53.7093 4.39419C54.2278 4.1633 54.4609 3.55575 54.2301 3.03739C53.9991 2.51876 53.3916 2.28582 52.8733 2.51657L51.8335 2.97957C51.315 3.21045 51.0819 3.81801 51.3127 4.33636C51.4831 4.71893 51.8586 4.94625 52.2519 4.94625Z" fill="#22201E"/>
<path d="M51.8334 14.0897L52.8732 14.5527C53.009 14.6131 53.151 14.6418 53.2907 14.6418C53.6841 14.6418 54.0596 14.4145 54.23 14.0319C54.4609 13.5134 54.2277 12.906 53.7092 12.6751L52.6693 12.2121C52.151 11.9814 51.5434 12.2144 51.3125 12.7329C51.0818 13.2513 51.3149 13.8588 51.8334 14.0897Z" fill="#22201E"/>
</g>
<defs>
<clipPath id="clip0">
<rect width="70" height="70" fill="white"/>
</clipPath>
</defs>
</svg>
