<svg width="210" height="133" viewBox="0 0 210 133" fill="none" xmlns="http://www.w3.org/2000/svg">
<g clip-path="url(#clip0)">
<path d="M17.08 103.459H21.489V94.1697L25.6199 100.487H25.713L29.8671 94.123V103.459H34.3461V87.2021H29.5887L25.713 93.4958L21.8373 87.2021H17.08V103.459Z" fill="white"/>
<path d="M45.3927 103.784C50.4054 103.784 54.1652 99.999 54.1652 95.3309C54.1652 90.6164 50.4521 86.877 45.4395 86.877C40.4265 86.877 36.667 90.6624 36.667 95.3309C36.667 100.045 40.3801 103.784 45.3927 103.784ZM45.4395 99.7204C42.9795 99.7204 41.2853 97.6767 41.2853 95.3313C41.2853 92.9391 42.9332 90.9418 45.3927 90.9418C47.8759 90.9418 49.57 92.9854 49.57 95.3313C49.57 97.7231 47.9222 99.7204 45.4395 99.7204Z" fill="white"/>
<path d="M64.3295 103.785C67.9268 103.785 69.992 102.229 71.5236 100.115L68.1353 97.6999C67.1606 98.8845 66.1627 99.674 64.4689 99.674C62.1943 99.674 60.5932 97.7699 60.5932 95.3313C60.5932 92.9159 62.1943 90.9882 64.4689 90.9882C66.0233 90.9882 67.1142 91.7078 68.0426 92.8691L71.3383 90.3142C69.8994 88.3173 67.8341 86.877 64.5152 86.877C59.5953 86.877 55.9521 90.5928 55.9521 95.3309C55.9521 100.231 59.6884 103.784 64.3295 103.784V103.785Z" fill="white"/>
<path d="M73.4503 103.459H77.952V99.2552L79.5998 97.4207L83.684 103.459H89.0917L82.7329 94.1925L88.8828 87.2021H83.545L77.952 93.7976V87.2021H73.4503V103.459Z" fill="white"/>
<path d="M98.5601 103.784C103.573 103.784 107.332 99.999 107.332 95.3309C107.332 90.6164 103.619 86.877 98.6064 86.877C93.5938 86.877 89.8343 90.6624 89.8343 95.3309C89.8343 100.045 93.5474 103.784 98.5601 103.784ZM98.6064 99.7204C96.1468 99.7204 94.4523 97.6767 94.4523 95.3313C94.4523 92.9391 96.1001 90.9418 98.5601 90.9418C101.043 90.9418 102.737 92.9854 102.737 95.3313C102.737 97.7231 101.09 99.7204 98.6064 99.7204Z" fill="white"/>
<path d="M109.676 103.459H118.054C121.929 103.459 124.204 101.763 124.204 98.9766C124.204 96.7239 122.95 95.6089 120.978 94.9585C122.417 94.3317 123.484 93.2171 123.484 91.3358C123.484 90.1749 123.09 89.3157 122.44 88.6653C121.488 87.7127 120.049 87.2021 118.007 87.2021H109.676V103.459H109.676ZM114.062 99.8361V96.8402H117.497C119.006 96.8402 119.701 97.4207 119.701 98.303C119.701 99.3016 118.912 99.8361 117.543 99.8361H114.062H114.062ZM114.062 93.682V90.8253H116.986C118.332 90.8253 119.028 91.3362 119.028 92.2189C119.028 93.2175 118.263 93.682 116.893 93.682H114.062H114.062Z" fill="white"/>
<path d="M134.09 103.785C137.687 103.785 139.753 102.229 141.284 100.115L137.896 97.6999C136.921 98.8845 135.923 99.674 134.229 99.674C131.955 99.674 130.354 97.7699 130.354 95.3313C130.354 92.9159 131.955 90.9882 134.229 90.9882C135.784 90.9882 136.875 91.7078 137.803 92.8691L141.099 90.3142C139.66 88.3173 137.595 86.877 134.276 86.877C129.356 86.877 125.713 90.5928 125.713 95.3309C125.713 100.231 129.449 103.784 134.09 103.784V103.785Z" fill="white"/>
<path d="M143.211 103.459H147.713V99.2552L149.36 97.4207L153.445 103.459H158.852L152.493 94.1925L158.643 87.2021H153.306L147.713 93.7976V87.2021H143.211V103.459Z" fill="white"/>
<path d="M160.152 103.459H164.352L170.641 94.3089V103.459H175.097V87.2021H170.897L164.608 96.3521V87.2021H160.152V103.459Z" fill="white"/>
<path d="M177.975 103.459H182.176L188.465 94.3087V103.459H192.92V87.202H188.72L182.431 96.352V87.202H177.975V103.459ZM185.587 86.157C187.838 86.157 189.346 84.8565 189.694 82.6035L187.234 82.1621C186.933 82.998 186.469 83.5557 185.587 83.5557C184.728 83.5557 184.264 82.9984 183.962 82.1621L181.503 82.6035C181.851 84.8565 183.359 86.157 185.587 86.157Z" fill="white"/>
<path d="M-7.15838e-05 129.748H4.5024V125.545L6.15023 123.71L10.2345 129.748H15.6414L9.28292 120.481L15.4324 113.491H10.0947L4.50201 120.086V113.491H-0.000457764V129.748L-7.15838e-05 129.748ZM25.1101 130.074C30.1227 130.074 33.8822 126.288 33.8822 121.62C33.8822 116.905 30.1691 113.166 25.1565 113.166C20.1438 113.166 16.384 116.951 16.384 121.62C16.384 126.334 20.0971 130.074 25.1101 130.074ZM25.1565 126.009C22.6965 126.009 21.0023 123.966 21.0023 121.62C21.0023 119.228 22.6502 117.231 25.1101 117.231C27.5929 117.231 29.2874 119.274 29.2874 121.62C29.2874 124.012 27.6396 126.009 25.1565 126.009ZM36.2263 129.748H40.7284V123.571H46.5072V129.748H51.0093V113.491H46.5072V119.576H40.7284V113.491H36.2263V129.748ZM61.7072 130.074C65.3045 130.074 67.3698 128.518 68.9014 126.404L65.513 123.989C64.5387 125.174 63.5404 125.963 61.8466 125.963C59.572 125.963 57.9709 124.059 57.9709 121.62C57.9709 119.205 59.572 117.277 61.8466 117.277C63.401 117.277 64.492 117.997 65.4203 119.158L68.716 116.603C67.2771 114.606 65.2118 113.166 61.893 113.166C56.973 113.166 53.3298 116.882 53.3298 121.62C53.3298 126.52 57.0661 130.074 61.7072 130.074V130.074ZM78.9965 130.074C84.0091 130.074 87.769 126.288 87.769 121.62C87.769 116.905 84.0558 113.166 79.0428 113.166C74.0302 113.166 70.2708 116.952 70.2708 121.62C70.2708 126.334 73.9839 130.074 78.9965 130.074ZM79.0428 126.01C76.5833 126.01 74.8887 123.966 74.8887 121.62C74.8887 119.228 76.5365 117.231 78.9965 117.231C81.4796 117.231 83.1738 119.275 83.1738 121.62C83.1738 124.013 81.526 126.01 79.0428 126.01ZM91.0411 129.981C94.1973 129.981 96.3784 127.984 96.3784 118.067V117.44H100.161V129.749H104.664V113.492H92.1784V115.745C92.1784 125.592 90.9715 126.242 89.6952 126.242C89.4863 126.242 88.8599 126.196 88.651 126.149L88.3494 129.61C88.6973 129.726 89.8578 129.982 91.0415 129.982L91.0411 129.981ZM107.541 129.749H111.742L118.031 120.599V129.749H122.487V113.492H118.286L111.997 122.643V113.492H107.541V129.749ZM124.157 133H128.195L128.497 129.749H137.13V133H140.936L141.447 125.801H139.613V113.492H127.244V113.91C127.244 120.018 126.687 122.851 125.596 125.801H124.158V133H124.157ZM130.307 125.801C131.049 123.571 131.583 121.203 131.583 117.603V117.44H135.11V125.801H130.307V125.801ZM141.933 129.749H146.668L147.828 126.846H154.094L155.277 129.749H160.104L153.189 113.376H148.849L141.933 129.749ZM149.151 123.339L150.984 118.717L152.794 123.339H149.151H149.151ZM165.651 129.749H170.153V117.44H175.027V113.492H160.778V117.44H165.651V129.749H165.651ZM185.168 130.074C190.181 130.074 193.94 126.289 193.94 121.62C193.94 116.906 190.227 113.167 185.214 113.167C180.202 113.167 176.442 116.952 176.442 121.62C176.442 126.335 180.155 130.074 185.168 130.074ZM185.214 126.01C182.755 126.01 181.06 123.967 181.06 121.621C181.06 119.229 182.708 117.232 185.168 117.232C187.651 117.232 189.345 119.275 189.345 121.621C189.345 124.013 187.698 126.01 185.214 126.01ZM196.284 129.749H200.786V125.104H203.014C207.053 125.104 210 123.084 210 119.252C210 115.606 207.354 113.492 203.247 113.492H196.285V129.749H196.284ZM200.786 121.574V117.278H202.898C204.523 117.278 205.497 118.021 205.497 119.415C205.497 120.738 204.523 121.574 202.921 121.574H200.786H200.786Z" fill="white"/>
<path fill-rule="evenodd" clip-rule="evenodd" d="M105.073 53.2141L105.074 53.3015L105 53.2578L104.926 53.3015L104.927 53.2141L73.6128 34.5903L82.1065 70.2152L70.4987 66.519L57.7401 13.0039L105 41.1116H105L152.26 13.0039L139.502 66.519L127.894 70.2152L136.387 34.5903L105.073 53.2141Z" fill="white"/>
<path fill-rule="evenodd" clip-rule="evenodd" d="M105 19.9807L139.232 0L135.909 12.7804L105.034 32.2947V32.3372L105 32.3159L104.966 32.3372V32.2947L74.0909 12.7804L70.7682 0L105 19.9807Z" fill="white"/>
<path fill-rule="evenodd" clip-rule="evenodd" d="M56.4549 76.6924H153.546L151.972 79.2693H58.0286L56.4549 76.6924Z" fill="white"/>
</g>
<defs>
<clipPath id="clip0">
<rect width="210" height="133" fill="white"/>
</clipPath>
</defs>
</svg>
