<svg width="70" height="70" viewBox="0 0 70 70" fill="none" xmlns="http://www.w3.org/2000/svg">
<g clip-path="url(#clip0)">
<path d="M65.7506 31.8863L61.2559 27.6288C60.8638 27.2572 60.3538 26.9593 59.7919 26.7577C59.6457 26.6256 59.4683 26.5236 59.2654 26.4677L55.2167 25.3486C55.3753 25.0046 55.5149 24.6302 55.625 24.2182C56.5126 20.8898 54.702 17.4683 51.5029 16.4287C51.0109 16.2689 50.4912 16.1876 49.958 16.1876C48.4913 16.1876 47.2007 16.786 46.296 17.2766C45.7231 16.039 44.6619 14.2057 42.532 13.5135C41.918 13.3137 41.2796 13.2126 40.635 13.2126C37.999 13.2126 35.5808 14.892 34.6177 17.3918C34.2242 18.4138 34.1231 19.3552 34.1576 20.1764C33.7932 20.2148 33.447 20.2742 33.1424 20.3567L10.5671 26.4658C10.5289 26.4761 10.492 26.4886 10.4555 26.502C9.7964 26.7 9.19321 27.0289 8.74408 27.4543L4.24934 31.7122C3.58846 32.3382 3.29532 33.1512 3.4452 33.9425C3.59474 34.7339 4.16481 35.3836 5.00869 35.725L9.60155 37.5829V54.7997C9.60155 56.2456 10.5686 57.839 11.8512 58.5067L33.0167 69.5207C33.6109 69.8297 34.3742 70.0001 35.1662 70.0001C35.9579 70.0001 36.7213 69.8297 37.3154 69.5207L58.4808 58.5065C59.7633 57.839 60.7306 56.2454 60.7306 54.7996V37.6226L64.9913 35.899C65.8352 35.5576 66.4051 34.9078 66.5548 34.1164C66.7047 33.3255 66.4115 32.5125 65.7506 31.8863ZM37.0571 18.3318C37.6344 16.8337 39.0722 15.8272 40.6348 15.8272C41.0046 15.8272 41.3711 15.8853 41.7237 15.9999C43.0998 16.447 43.759 17.9787 44.1529 18.8941C44.4193 19.5135 44.6496 20.0482 45.2986 20.2592C45.4391 20.3049 45.5863 20.3281 45.7367 20.3281C45.7369 20.3281 45.7373 20.3281 45.7374 20.3281C46.2043 20.3279 46.566 20.1233 47.1134 19.8139C47.8259 19.4108 48.9024 18.8021 49.9579 18.8021C50.2198 18.8021 50.4608 18.839 50.6947 18.915C52.5414 19.515 53.6197 21.5918 53.0991 23.5445C52.834 24.5372 52.3124 25.2876 51.3553 26.0534C49.6595 27.4106 43.7578 29.7761 42.176 29.8929C41.0334 28.939 37.5523 23.4188 36.9926 21.3851C36.668 20.2052 36.6873 19.2918 37.0571 18.3318ZM33.8252 22.8803C34.0644 22.8156 34.3711 22.7748 34.698 22.755C35.2666 24.2538 36.4374 26.3236 37.4419 27.9066C38.6379 29.7914 39.4877 30.8702 40.0921 31.4978L35.1662 32.9388L16.6596 27.5252L33.8252 22.8803ZM10.5422 29.3522C10.8109 29.0976 11.3775 28.9056 11.8603 28.9056C12.0312 28.9056 12.1471 28.9291 12.2144 28.9486L32.989 35.0258L28.1401 41.4938C27.9828 41.704 27.6312 41.8563 27.3043 41.8563C27.195 41.8563 27.0951 41.8392 27.0153 41.807L6.25812 33.4101L10.5422 29.3522ZM13.0577 56.1875C12.6405 55.9706 12.2156 55.2701 12.2156 54.7997V38.6404L26.0348 44.2307C26.4287 44.39 26.8557 44.4707 27.3038 44.4707C27.3039 44.4707 27.3039 44.4707 27.3041 44.4707C28.4586 44.4707 29.5806 43.9308 30.2319 43.062L33.8589 38.2239V67.0117L13.0577 56.1875ZM58.1164 54.7997C58.1164 55.27 57.6913 55.9704 57.2741 56.1875L36.4729 67.0119V38.8409L39.7679 43.2361C40.4192 44.1051 41.5412 44.645 42.6959 44.645C43.1441 44.645 43.5711 44.5643 43.965 44.405L58.1162 38.6804V54.7997H58.1164ZM42.9848 41.9814C42.905 42.0139 42.8051 42.0308 42.696 42.0308C42.3691 42.0308 42.0174 41.8783 41.8598 41.6681L37.0111 35.2003L57.7859 29.1231C57.853 29.1035 57.9689 29.08 58.1399 29.08C58.6227 29.08 59.1893 29.2721 59.458 29.5267L63.742 33.5845L42.9848 41.9814Z" fill="#22201E"/>
<path d="M17.1959 16.7069C19.2305 17.8638 25.3888 19.3976 27.9979 19.3976C28.6022 19.3976 29.0259 19.319 29.3722 19.1427C29.719 18.9659 30.6399 18.4968 32.5394 14.0869C33.3949 12.1003 34.3707 9.42293 34.5433 7.86746C34.6669 6.75449 34.7104 5.06639 33.6666 3.26257C32.5016 1.2503 30.3459 0 28.0408 0C27.0568 0 26.1159 0.225173 25.2436 0.669593C23.3171 1.65115 22.5469 3.66185 22.1619 4.95102C21.4146 4.6767 20.4104 4.37815 19.3007 4.37815C18.4141 4.37815 17.5858 4.57091 16.8388 4.95154C13.8415 6.47878 12.5881 10.1415 13.9855 13.2904C14.8323 15.1981 16.2232 16.1539 17.1959 16.7069ZM18.0257 7.28082C18.4068 7.08667 18.8239 6.99239 19.3007 6.99239C20.2394 6.99239 21.1723 7.36396 21.7896 7.60987C22.2539 7.79496 22.5607 7.91695 22.9228 7.91695C23.1515 7.91695 23.3676 7.86589 23.5658 7.76498C24.1763 7.45371 24.3338 6.8859 24.5334 6.16698C24.7995 5.20791 25.245 3.60277 26.4303 2.99888C26.9315 2.74355 27.4732 2.61424 28.0406 2.61424C29.4159 2.61424 30.7047 3.3647 31.4039 4.57247C31.9184 5.46149 32.0803 6.36079 31.9449 7.57937C31.7034 9.75546 29.1745 15.6581 28.1804 16.7787C28.1344 16.7815 28.0744 16.7834 27.9978 16.7834C25.8867 16.7834 20.1096 15.3564 18.4879 14.4342C17.424 13.8293 16.7921 13.17 16.3745 12.2297C15.555 10.3825 16.2956 8.16234 18.0257 7.28082Z" fill="#22201E"/>
</g>
<defs>
<clipPath id="clip0">
<rect width="70" height="70" fill="white"/>
</clipPath>
</defs>
</svg>
