<svg width="70" height="70" viewBox="0 0 70 70" fill="none" xmlns="http://www.w3.org/2000/svg">
<g clip-path="url(#clip0)">
<path d="M53.0009 63.4398C52.6222 62.7871 51.7859 62.5648 51.1324 62.9435L51.0798 62.9738C50.4268 63.3527 50.2046 64.1893 50.5833 64.8424C50.8369 65.2795 51.2956 65.5236 51.767 65.5236C51.9997 65.5236 52.236 65.4639 52.4519 65.3387L52.5045 65.3083C53.1575 64.9295 53.3796 64.0929 53.0009 63.4398Z" fill="#22201E"/>
<path d="M65.3101 17.5118C60.6367 9.41735 53.0911 3.62745 44.063 1.20835C35.0352 -1.21075 25.6054 0.0307899 17.511 4.70397C9.4167 9.37716 3.62666 16.9229 1.20769 25.9509C-1.21127 34.9788 0.0301338 44.4087 4.70332 52.503C8.89525 59.7638 15.5578 65.2819 23.4637 68.0406C27.2113 69.3482 31.1235 70.0007 35.0297 70.0007C39.2769 70.0007 43.5164 69.2288 47.5238 67.6887C48.2286 67.4178 48.5802 66.6269 48.3092 65.9221C48.0382 65.2173 47.2472 64.8653 46.5427 65.1367C35.8759 69.2365 24.3283 67.3737 15.701 60.8978L16.9258 54.5042L17.5161 54.3125C19.7463 53.5879 20.9713 51.1838 20.247 48.9534L19.8139 47.6205C19.7137 47.3121 19.7142 46.986 19.8153 46.6779C20.1952 45.5196 20.0594 44.2523 19.4427 43.2007C18.826 42.1492 17.7862 41.4119 16.5898 41.1779L13.504 40.575L7.55021 36.0483C7.19351 35.777 6.72662 35.6978 6.30033 35.8362L2.81455 36.9685C2.74058 35.7218 2.73949 34.4754 2.80976 33.2357C2.9473 33.3638 3.03685 33.4509 3.09195 33.508C3.16017 33.6216 3.24467 33.7258 3.34365 33.816C3.6283 34.0753 3.88615 34.1928 4.42756 34.1928C4.92508 34.1927 5.66158 34.0936 6.87769 33.9139C8.03105 33.7434 9.1784 33.5514 9.18974 33.5494C9.64953 33.4725 10.0382 33.1662 10.2212 32.7376C10.4041 32.3089 10.3558 31.8165 10.0932 31.4313L8.41687 28.9725L10.8179 27.2556C10.9779 27.1412 11.1113 26.9936 11.2091 26.823L14.931 20.3255L16.4312 18.7179C17.9642 17.0748 18.4017 14.6709 17.5456 12.5933C17.0405 11.3679 16.1584 10.3477 15.0551 9.66016C16.25 8.72077 17.5241 7.85343 18.8782 7.07181C23.8463 4.20345 29.268 2.81343 34.6327 2.76024L32.1914 5.82261L23.1386 8.99626C22.771 9.12505 22.4757 9.40477 22.3272 9.76489L19.799 15.8937C19.6195 16.3292 19.6765 16.826 19.9501 17.2094L23.6426 22.3817C23.1137 22.8642 22.599 23.5669 21.9842 24.4395C21.7146 24.8221 21.46 25.1835 21.284 25.3861C21.131 25.5625 20.9779 25.7347 20.8262 25.9054C20.032 26.7988 19.2108 27.7229 18.6274 28.9572C17.3447 31.6723 17.6038 34.828 19.3035 37.193C20.947 39.4796 23.6565 40.642 26.5484 40.3018C27.0195 40.2466 27.4588 40.1379 27.8838 40.0326C29.0559 39.7427 29.4273 39.7137 29.8032 40.0656C29.9862 40.2369 30.003 40.2693 29.9993 40.8502C29.9967 41.2199 29.9938 41.6798 30.1213 42.205C30.3254 43.0451 30.853 43.6258 31.2768 44.0922C31.4875 44.324 31.7054 44.5638 31.7725 44.7247C32.199 45.7465 32.0133 46.3124 31.6064 47.5524C31.5716 47.6585 31.536 47.7668 31.5003 47.8778C30.8822 49.7912 31.7438 51.6891 32.504 53.3634C32.7509 53.9071 32.984 54.4204 33.1367 54.874C34.366 58.5215 35.2874 59.3569 36.027 59.6932C36.4143 59.8693 36.8151 59.9466 37.2201 59.9464C39.1909 59.9463 41.2474 58.1164 42.1922 56.9564C42.7855 56.2279 42.9317 55.4985 43.0383 54.9657C43.0915 54.7008 43.1333 54.4916 43.2132 54.3549C43.3354 54.1457 43.4794 53.9836 43.6616 53.7782C44.0281 53.3655 44.4844 52.8519 44.7798 51.921C45.0043 51.2139 45.1674 51.0406 45.7076 50.4652C45.8017 50.3653 45.9019 50.2584 46.0095 50.1414C47.8304 48.1599 47.3615 46.6463 46.8648 45.0437C46.4468 43.6952 47.1779 42.8328 48.9454 41.1868C49.7115 40.4733 50.5037 39.7356 51.1161 38.8491C51.384 38.4611 52.1993 37.2808 51.6948 36.1109C51.2003 34.9638 49.9434 34.771 48.9336 34.6163C48.5348 34.555 47.9322 34.4626 47.7403 34.3372C46.8945 33.7842 46.377 32.63 45.8764 31.5137C45.7768 31.2915 45.6785 31.0722 45.5788 30.8594C45.4011 30.4796 45.2235 30.02 45.0355 29.5336C44.5381 28.2463 43.9744 26.7871 43.0148 25.7699C42.1522 24.8559 40.5262 24.4157 39.0916 24.0271C38.6092 23.8966 38.1538 23.7732 37.8534 23.6624C37.6017 23.5694 37.3285 23.5526 37.0679 23.6138C36.3697 23.7775 35.9341 23.9578 35.6106 24.217C35.5252 24.2855 35.2721 24.5104 35.1239 24.8719C34.6234 24.6317 33.9352 24.173 33.5116 23.8907C33.5028 23.8848 33.494 23.8789 33.4852 23.873C33.6279 23.3018 33.4987 22.8434 33.3634 22.5571C32.5997 20.9417 30.0645 21.0681 29.5644 21.1106C29.2803 21.1344 28.9209 21.1471 28.5406 21.1605C27.9435 21.1817 27.2834 21.2055 26.6303 21.2788L26.6639 21.185C27.1596 19.8037 28.4787 18.8757 29.9463 18.8757H30.7235C31.4783 18.8757 32.0905 18.2635 32.0905 17.5086C32.0905 16.7538 31.4783 16.1416 30.7235 16.1416H29.9463C27.7675 16.1416 25.7724 17.2883 24.6541 19.0931L22.615 16.2366L24.6212 11.3737L33.4673 8.27233C33.7098 8.18729 33.9237 8.03554 34.084 7.83442L38.0165 2.90175C48.0645 3.85755 57.5227 9.49118 62.9425 18.8786C64.3861 21.379 65.454 24.0114 66.164 26.7038L65.5845 27.2206C64.828 27.8956 64.3848 28.8637 64.3678 29.8769C64.3677 29.888 64.3674 29.8989 64.367 29.9099L63.4228 27.3133C63.2821 26.9258 63.0748 26.5705 62.8072 26.2573L61.1229 24.2854C60.4699 23.521 59.5192 23.0828 58.5142 23.0828H56.4526C55.7207 23.0828 55.0519 23.4837 54.7067 24.1286C54.3615 24.7736 54.3992 25.5526 54.8051 26.1613L55.0138 26.4745C53.6816 27.6201 52.1408 28.5368 50.5001 29.155L47.6742 23.7419V22.5343C47.6742 22.1608 47.5213 21.8033 47.251 21.5455L44.7063 19.1162C44.5659 18.9822 44.3985 18.8797 44.2155 18.8153L41.9247 18.0103C41.212 17.7595 40.4319 18.1345 40.1817 18.8467C39.9314 19.5591 40.3058 20.3394 41.0181 20.5897L43.0312 21.2973L44.9401 23.1193V24.0774C44.9401 24.2977 44.9934 24.5148 45.0954 24.7102L48.6332 31.4869C48.9514 32.0967 49.6735 32.3753 50.318 32.1369L51.3482 31.7571C53.7415 30.8744 55.9597 29.4546 57.7633 27.6513C58.2241 27.1904 58.2957 26.4686 57.9341 25.9263L57.8614 25.817H58.5142C58.7183 25.817 58.9115 25.906 59.0441 26.0614L60.7283 28.0333C60.7826 28.0968 60.8246 28.1687 60.8533 28.2476L62.712 33.3586C62.8717 33.7977 63.2447 34.1248 63.7005 34.2259C63.7989 34.2477 63.898 34.2583 63.9966 34.2583C64.3552 34.2583 64.7043 34.1171 64.9632 33.8579L65.8479 32.9732C66.4082 32.4128 66.7939 31.7037 66.9782 30.9177C68.3465 41.8833 64.0468 53.2266 54.9585 60.3597C54.3645 60.8258 54.2609 61.6851 54.7272 62.2791C55.1933 62.8731 56.0524 62.9768 56.6466 62.5104C63.208 57.3607 67.7156 49.9949 69.3392 41.7701C70.9779 33.4659 69.5471 24.8506 65.3101 17.5118ZM6.46467 38.6577L12.102 42.9439C12.2687 43.0707 12.462 43.1574 12.6673 43.1974L16.0651 43.8613C16.4987 43.9461 16.8605 44.2026 17.084 44.5837C17.3076 44.9648 17.3546 45.4057 17.2171 45.8256C16.934 46.6887 16.9327 47.6015 17.2134 48.4652L17.6465 49.7979C17.9053 50.5944 17.4675 51.4532 16.6711 51.712L15.3126 52.1534C14.8386 52.3074 14.4861 52.7072 14.3924 53.1963L13.299 58.9042C10.895 56.704 8.78437 54.1036 7.07115 51.1361C4.98099 47.5162 3.67506 43.6551 3.09947 39.751L6.46467 38.6577ZM14.4322 16.8525L12.824 18.5756C12.7522 18.6526 12.6895 18.7376 12.6371 18.8289L8.98508 25.205L5.73924 27.5259C5.13467 27.9582 4.98619 28.794 5.40482 29.4081L6.61875 31.1887C5.91902 31.2929 5.29107 31.3788 4.87353 31.4243C4.79328 31.3473 4.70933 31.2692 4.62252 31.1886C4.29754 30.8867 3.84595 30.4835 3.17275 29.8944C4.28304 23.0225 7.59437 16.5486 12.8023 11.6069C13.7995 11.9209 14.6179 12.6648 15.0177 13.6351C15.4675 14.7264 15.2375 15.9894 14.4322 16.8525ZM25.5789 24.3233C26.1887 23.9801 27.604 23.9299 28.6373 23.8933C29.0514 23.8786 29.4427 23.8647 29.7922 23.8354C29.9766 23.82 30.1814 23.8229 30.3746 23.8379C30.2883 24.0594 30.2603 24.3025 30.2978 24.5436C30.3635 24.9679 30.6251 25.3363 31.0035 25.5388C31.26 25.6761 31.617 25.9141 31.9948 26.1661C33.0633 26.8784 34.2745 27.6857 35.4123 27.7582C36.447 27.8253 37.0227 27.2356 37.2693 26.9845C37.289 26.9645 37.3076 26.9446 37.3273 26.9264C37.4662 26.8132 37.5964 26.6614 37.6931 26.4783C37.9118 26.5408 38.1414 26.603 38.3769 26.6669C39.1864 26.886 40.6932 27.294 41.0261 27.6467C41.6174 28.2736 42.0783 29.4667 42.485 30.5193C42.6905 31.0513 42.8846 31.5533 43.1024 32.0189C43.1959 32.2186 43.288 32.4244 43.3815 32.6327C44.0123 34.0399 44.7273 35.6348 46.2442 36.6263C46.9321 37.076 47.7752 37.2052 48.5192 37.3193C48.6092 37.3331 48.7123 37.349 48.817 37.3662C48.3754 37.9823 47.7466 38.5677 47.0823 39.1864C45.3899 40.7625 43.2836 42.7241 44.2536 45.8534C44.7115 47.3311 44.7328 47.4908 43.9966 48.2917C43.8962 48.4009 43.8027 48.5005 43.7151 48.5937C43.0845 49.265 42.5864 49.7952 42.1741 51.094C42.0543 51.4712 41.8992 51.6459 41.6174 51.9631C41.3921 52.2169 41.1114 52.533 40.8526 52.9759C40.5425 53.5067 40.44 54.0177 40.3578 54.4283C40.2767 54.8323 40.2308 55.0351 40.0722 55.2298C39.7111 55.673 39.0376 56.3167 38.3463 56.7559C37.7037 57.1639 37.3285 57.2197 37.2007 57.212C37.0548 57.0556 36.5264 56.3708 35.728 54.0011C35.5311 53.4165 35.2579 52.8149 34.9938 52.2332C34.4115 50.9507 33.8095 49.6246 34.1024 48.7183C34.137 48.6113 34.1711 48.5069 34.2048 48.4048C34.6726 46.9788 35.1142 45.6322 34.2961 43.6717C34.047 43.0746 33.6504 42.6384 33.3008 42.2534C33.0745 42.0044 32.8182 41.7222 32.7787 41.5598C32.7305 41.3617 32.732 41.133 32.7338 40.8681C32.7385 40.1538 32.7456 39.0744 31.6725 38.0695C30.1595 36.6534 28.3953 37.0896 27.2277 37.3784C26.8691 37.467 26.5303 37.5509 26.2301 37.5862C24.3095 37.8112 22.5947 37.0866 21.5242 35.5969C20.4044 34.0388 20.2418 31.9419 21.1001 30.1249C21.5156 29.2457 22.1433 28.5392 22.8701 27.7217C23.0288 27.543 23.1891 27.3628 23.3493 27.1782C23.6159 26.8709 23.9093 26.4547 24.2195 26.0141C24.5899 25.4884 25.2795 24.5095 25.5789 24.3233Z" fill="#22201E"/>
<path d="M56.0577 47.0693L55.4 44.59C55.2563 44.0486 54.7969 43.6497 54.2409 43.5832C53.6841 43.5181 53.1442 43.7965 52.877 44.2888C52.7271 44.565 52.5922 44.8576 52.4617 45.1404C52.2423 45.6164 52.0154 46.1085 51.7792 46.3802C51.6466 46.5328 51.3059 46.6973 50.9767 46.8561C50.1896 47.2359 49.1116 47.7561 48.6998 49.0689C48.4441 49.8832 48.5396 50.5274 48.6093 50.9977C48.6696 51.4056 48.6835 51.5469 48.5743 51.8034L48.5606 51.8353C48.1254 52.8564 47.3158 54.7575 48.4511 56.3736C49.2612 57.527 50.1129 57.8235 50.7748 57.8235C50.904 57.824 51.0262 57.8126 51.1393 57.7942C52.5338 57.5662 53.5822 56.1157 54.4388 53.2287L56.0469 47.809C56.1184 47.568 56.1222 47.3121 56.0577 47.0693ZM51.8178 52.4509C51.3811 53.9228 50.9948 54.61 50.7718 54.9146C50.7461 54.8818 50.7182 54.8446 50.6884 54.8021C50.4271 54.4299 50.8176 53.5134 51.076 52.9067L51.0898 52.8747C51.5065 51.8967 51.3951 51.1455 51.314 50.597C51.2619 50.2458 51.2433 50.0948 51.3085 49.8874C51.3621 49.717 51.6824 49.5515 52.1651 49.3186C52.379 49.2152 52.6146 49.1016 52.8523 48.964L51.8178 52.4509Z" fill="#22201E"/>
<path d="M36.9182 16.2504L36.8259 16.2181C36.114 15.9687 35.3333 16.3432 35.0834 17.0556C34.8335 17.7682 35.2085 18.5482 35.921 18.7981L36.0131 18.8304C36.1628 18.8829 36.3154 18.9078 36.4656 18.9078C37.03 18.9078 37.5583 18.5554 37.7557 17.9928C38.0056 17.2803 37.6306 16.5001 36.9182 16.2504Z" fill="#22201E"/>
</g>
<defs>
<clipPath id="clip0">
<rect width="70" height="70" fill="white"/>
</clipPath>
</defs>
</svg>
