<svg width="70" height="70" viewBox="0 0 70 70" fill="none" xmlns="http://www.w3.org/2000/svg">
<g clip-path="url(#clip0)">
<path d="M68.8708 0H5.64514C5.02219 0 4.51612 0.506078 4.51612 1.12903V4.51611H1.12903C0.506078 4.51611 0 5.02219 0 5.64514V50.8063C0 51.4309 0.506078 51.9353 1.12903 51.9353H23.1688C24.2438 53.2347 25.5829 54.3042 27.0967 55.0809V68.8707C27.0967 69.3266 27.3723 69.7401 27.7935 69.9138C28.2147 70.0891 28.6998 69.992 29.024 69.669L32.7418 65.9511L36.4597 69.669C36.6752 69.8845 36.9647 69.9998 37.2579 69.9998C37.4035 69.9998 37.5507 69.9727 37.6907 69.9138C38.1113 69.7401 38.387 69.3266 38.387 68.8707V55.0809C39.9003 54.3042 41.2388 53.2358 42.3149 51.9353H64.3546C64.9781 51.9353 65.4837 51.4309 65.4837 50.8063V47.4192H68.8708C69.4943 47.4192 69.9998 46.9148 69.9998 46.2902V1.12903C69.9998 0.506078 69.4943 0 68.8708 0ZM36.1289 66.1452L33.5401 63.5564C33.0985 63.1148 32.3852 63.1148 31.9436 63.5564L29.3547 66.1452V55.9707C30.4331 56.2767 31.5665 56.4514 32.7418 56.4514C33.9172 56.4514 35.0506 56.2767 36.1289 55.9707V66.1452ZM32.7418 54.1934C27.1397 54.1934 22.5806 49.6354 22.5806 44.0321C22.5806 38.4289 27.1397 33.8709 32.7418 33.8709C38.344 33.8709 42.9031 38.4289 42.9031 44.0321C42.9031 49.6354 38.344 54.1934 32.7418 54.1934ZM20.3804 45.1611H13.4684C12.9717 41.704 10.2302 38.9642 6.77417 38.4669V17.9845C10.2302 17.4873 12.9717 14.7463 13.4684 11.2903H52.0169C52.5136 14.7463 55.2546 17.4873 58.7106 17.9845V38.468C55.2546 38.9642 52.5136 41.7051 52.0169 45.1622H45.1049C45.1374 44.7885 45.1612 44.4136 45.1612 44.0321C45.1612 37.1846 39.5893 31.6128 32.7418 31.6128C25.8943 31.6128 20.3225 37.1846 20.3225 44.0321C20.3225 44.4136 20.3462 44.7885 20.3804 45.1611ZM63.2256 49.6772H43.7907C44.1578 48.9617 44.4566 48.2075 44.6804 47.4192H53.0644C53.6879 47.4192 54.1934 46.9148 54.1934 46.2902C54.1934 43.1776 56.726 40.645 59.8385 40.645C60.462 40.645 60.9676 40.1406 60.9676 39.516V16.9354C60.9676 16.3125 60.462 15.8064 59.8385 15.8064C56.726 15.8064 54.1934 13.2738 54.1934 10.1613C54.1934 9.53831 53.6879 9.03223 53.0644 9.03223H12.4193C11.7964 9.03223 11.2903 9.53831 11.2903 10.1613C11.2903 13.2738 8.75824 15.8064 5.64514 15.8064C5.02219 15.8064 4.51612 16.3125 4.51612 16.9354V39.516C4.51612 40.1406 5.02219 40.645 5.64514 40.645C8.75824 40.645 11.2903 43.1776 11.2903 46.2902C11.2903 46.9148 11.7964 47.4192 12.4193 47.4192H20.8038C21.0271 48.2075 21.3264 48.9617 21.693 49.6772H2.25806V6.77417H63.2256V49.6772ZM67.7417 45.1611H65.4837V5.64514C65.4837 5.02219 64.9781 4.51611 64.3546 4.51611H6.77417V2.25806H67.7417V45.1611Z" fill="#22201E"/>
<path d="M32.7419 36.129C28.384 36.129 24.8387 39.6754 24.8387 44.0323H27.0968C27.0968 40.9197 29.6294 38.3871 32.7419 38.3871V36.129Z" fill="#22201E"/>
<path d="M38.3871 44.0322C38.3871 47.1448 35.8551 49.6774 32.7419 49.6774V51.9355C37.0999 51.9355 40.6452 48.389 40.6452 44.0322H38.3871Z" fill="#22201E"/>
<path d="M49.6774 19.1935V14.6774C49.6774 14.0544 49.1719 13.5483 48.5484 13.5483H16.9355C16.3125 13.5483 15.8065 14.0544 15.8065 14.6774V19.1935C15.8065 19.8165 16.3125 20.3225 16.9355 20.3225H48.5484C49.1719 20.3225 49.6774 19.8165 49.6774 19.1935ZM47.4194 18.0645H18.0645V15.8064H47.4194V18.0645Z" fill="#22201E"/>
<path d="M9.03226 22.5807H18.0645V24.8388H9.03226V22.5807Z" fill="#22201E"/>
<path d="M9.03226 27.0968H18.0645V29.3549H9.03226V27.0968Z" fill="#22201E"/>
<path d="M20.3226 27.0968H56.4516V29.3549H20.3226V27.0968Z" fill="#22201E"/>
<path d="M20.3226 22.5807H56.4516V24.8388H20.3226V22.5807Z" fill="#22201E"/>
</g>
<defs>
<clipPath id="clip0">
<rect width="70" height="70" fill="white"/>
</clipPath>
</defs>
</svg>
