<svg width="80" height="80" viewBox="0 0 80 80" fill="none" xmlns="http://www.w3.org/2000/svg">
<path d="M1.42857 79.0554H78.5714C78.9503 79.0554 79.3137 78.9166 79.5816 78.6695C79.8495 78.4224 80 78.0873 80 77.7378V1.31759C80 0.968144 79.8495 0.633009 79.5816 0.385913C79.3137 0.138817 78.9503 0 78.5714 0H72.8571C72.4783 0 72.1149 0.138817 71.847 0.385913C71.5791 0.633009 71.4286 0.968144 71.4286 1.31759V18.4463H54.2857V1.31759C54.2857 0.968144 54.1352 0.633009 53.8673 0.385913C53.5994 0.138817 53.236 0 52.8571 0H47.1429C46.764 0 46.4006 0.138817 46.1327 0.385913C45.8648 0.633009 45.7143 0.968144 45.7143 1.31759V18.4463H28.5714V3.95277C28.5714 3.60332 28.4209 3.26819 28.153 3.02109C27.8851 2.774 27.5217 2.63518 27.1429 2.63518H8.57143V1.31759C8.57143 0.968144 8.42092 0.633009 8.15301 0.385913C7.8851 0.138817 7.52174 0 7.14286 0H1.42857C1.04969 0 0.686328 0.138817 0.418419 0.385913C0.15051 0.633009 0 0.968144 0 1.31759V77.7378C0 78.0873 0.15051 78.4224 0.418419 78.6695C0.686328 78.9166 1.04969 79.0554 1.42857 79.0554ZM74.2857 2.63518H77.1429V76.4202H74.2857V2.63518ZM60 42.1629H65.7143V44.7981H60V42.1629ZM54.2857 39.5277V36.8925H71.4286V39.5277H54.2857ZM57.1429 42.1629V46.1157C57.1429 46.4651 57.2934 46.8002 57.5613 47.0473C57.8292 47.2944 58.1926 47.4333 58.5714 47.4333H67.1429C67.5217 47.4333 67.8851 47.2944 68.153 47.0473C68.4209 46.8002 68.5714 46.4651 68.5714 46.1157V42.1629H71.4286V55.3388H54.2857V42.1629H57.1429ZM60 57.974H65.7143V60.6092H60V57.974ZM57.1429 57.974V61.9267C57.1429 62.2762 57.2934 62.6113 57.5613 62.8584C57.8292 63.1055 58.1926 63.2443 58.5714 63.2443H67.1429C67.5217 63.2443 67.8851 63.1055 68.153 62.8584C68.4209 62.6113 68.5714 62.2762 68.5714 61.9267V57.974H71.4286V71.1499H54.2857V57.974H57.1429ZM71.4286 73.7851V76.4202H54.2857V73.7851H71.4286ZM60 21.0814H65.7143V23.7166H60V21.0814ZM57.1429 21.0814V25.0342C57.1429 25.3837 57.2934 25.7188 57.5613 25.9659C57.8292 26.213 58.1926 26.3518 58.5714 26.3518H67.1429C67.5217 26.3518 67.8851 26.213 68.153 25.9659C68.4209 25.7188 68.5714 25.3837 68.5714 25.0342V21.0814H71.4286V34.2574H54.2857V21.0814H57.1429ZM48.5714 2.63518H51.4286V76.4202H48.5714V2.63518ZM14.2857 21.0814H20V23.7166H14.2857V21.0814ZM12.8571 26.3518H21.4286C21.8075 26.3518 22.1708 26.213 22.4387 25.9659C22.7066 25.7188 22.8571 25.3837 22.8571 25.0342V21.0814H25.7143V34.2574H8.57143V21.0814H11.4286V25.0342C11.4286 25.3837 11.5791 25.7188 11.847 25.9659C12.1149 26.213 12.4783 26.3518 12.8571 26.3518ZM45.7143 36.8925V39.5277H8.57143V36.8925H45.7143ZM34.2857 57.974H40V60.6092H34.2857V57.974ZM32.8571 63.2443H41.4286C41.8075 63.2443 42.1708 63.1055 42.4387 62.8584C42.7066 62.6113 42.8571 62.2762 42.8571 61.9267V57.974H45.7143V71.1499H28.5714V57.974H31.4286V61.9267C31.4286 62.2762 31.5791 62.6113 31.847 62.8584C32.1149 63.1055 32.4783 63.2443 32.8571 63.2443ZM28.5714 55.3388V42.1629H31.4286V46.1157C31.4286 46.4651 31.5791 46.8002 31.847 47.0473C32.1149 47.2944 32.4783 47.4333 32.8571 47.4333H41.4286C41.8075 47.4333 42.1708 47.2944 42.4387 47.0473C42.7066 46.8002 42.8571 46.4651 42.8571 46.1157V42.1629H45.7143V55.3388H28.5714ZM34.2857 42.1629H40V44.7981H34.2857V42.1629ZM14.2857 42.1629H20V44.7981H14.2857V42.1629ZM11.4286 42.1629V46.1157C11.4286 46.4651 11.5791 46.8002 11.847 47.0473C12.1149 47.2944 12.4783 47.4333 12.8571 47.4333H21.4286C21.8075 47.4333 22.1708 47.2944 22.4387 47.0473C22.7066 46.8002 22.8571 46.4651 22.8571 46.1157V42.1629H25.7143V55.3388H8.57143V42.1629H11.4286ZM14.2857 57.974H20V60.6092H14.2857V57.974ZM11.4286 57.974V61.9267C11.4286 62.2762 11.5791 62.6113 11.847 62.8584C12.1149 63.1055 12.4783 63.2443 12.8571 63.2443H21.4286C21.8075 63.2443 22.1708 63.1055 22.4387 62.8584C22.7066 62.6113 22.8571 62.2762 22.8571 61.9267V57.974H25.7143V71.1499H8.57143V57.974H11.4286ZM45.7143 73.7851V76.4202H8.57143V73.7851H45.7143ZM34.2857 21.0814H40V23.7166H34.2857V21.0814ZM31.4286 21.0814V25.0342C31.4286 25.3837 31.5791 25.7188 31.847 25.9659C32.1149 26.213 32.4783 26.3518 32.8571 26.3518H41.4286C41.8075 26.3518 42.1708 26.213 42.4387 25.9659C42.7066 25.7188 42.8571 25.3837 42.8571 25.0342V21.0814H45.7143V34.2574H28.5714V21.0814H31.4286ZM14.2857 5.27036H20V7.90554H14.2857V5.27036ZM11.4286 5.27036V9.22313C11.4286 9.57258 11.5791 9.90771 11.847 10.1548C12.1149 10.4019 12.4783 10.5407 12.8571 10.5407H21.4286C21.8075 10.5407 22.1708 10.4019 22.4387 10.1548C22.7066 9.90771 22.8571 9.57258 22.8571 9.22313V5.27036H25.7143V18.4463H8.57143V5.27036H11.4286ZM2.85714 2.63518H5.71429V76.4202H2.85714V2.63518Z" fill="white"/>
</svg>
