<svg width="56" height="60" viewBox="0 0 56 60" fill="none" xmlns="http://www.w3.org/2000/svg">
<path d="M1 60H55C55.2652 60 55.5196 59.8946 55.7071 59.7071C55.8946 59.5196 56 59.2652 56 59V1C56 0.734784 55.8946 0.48043 55.7071 0.292893C55.5196 0.105357 55.2652 0 55 0H51C50.7348 0 50.4804 0.105357 50.2929 0.292893C50.1054 0.48043 50 0.734784 50 1V14H38V1C38 0.734784 37.8946 0.48043 37.7071 0.292893C37.5196 0.105357 37.2652 0 37 0H33C32.7348 0 32.4804 0.105357 32.2929 0.292893C32.1054 0.48043 32 0.734784 32 1V14H20V3C20 2.73478 19.8946 2.48043 19.7071 2.29289C19.5196 2.10536 19.2652 2 19 2H6V1C6 0.734784 5.89464 0.48043 5.70711 0.292893C5.51957 0.105357 5.26522 0 5 0H1C0.734784 0 0.48043 0.105357 0.292893 0.292893C0.105357 0.48043 0 0.734784 0 1V59C0 59.2652 0.105357 59.5196 0.292893 59.7071C0.48043 59.8946 0.734784 60 1 60ZM52 2H54V58H52V2ZM42 32H46V34H42V32ZM38 30V28H50V30H38ZM40 32V35C40 35.2652 40.1054 35.5196 40.2929 35.7071C40.4804 35.8946 40.7348 36 41 36H47C47.2652 36 47.5196 35.8946 47.7071 35.7071C47.8946 35.5196 48 35.2652 48 35V32H50V42H38V32H40ZM42 44H46V46H42V44ZM40 44V47C40 47.2652 40.1054 47.5196 40.2929 47.7071C40.4804 47.8946 40.7348 48 41 48H47C47.2652 48 47.5196 47.8946 47.7071 47.7071C47.8946 47.5196 48 47.2652 48 47V44H50V54H38V44H40ZM50 56V58H38V56H50ZM42 16H46V18H42V16ZM40 16V19C40 19.2652 40.1054 19.5196 40.2929 19.7071C40.4804 19.8946 40.7348 20 41 20H47C47.2652 20 47.5196 19.8946 47.7071 19.7071C47.8946 19.5196 48 19.2652 48 19V16H50V26H38V16H40ZM34 2H36V58H34V2ZM10 16H14V18H10V16ZM9 20H15C15.2652 20 15.5196 19.8946 15.7071 19.7071C15.8946 19.5196 16 19.2652 16 19V16H18V26H6V16H8V19C8 19.2652 8.10536 19.5196 8.29289 19.7071C8.48043 19.8946 8.73478 20 9 20ZM32 28V30H6V28H32ZM24 44H28V46H24V44ZM23 48H29C29.2652 48 29.5196 47.8946 29.7071 47.7071C29.8946 47.5196 30 47.2652 30 47V44H32V54H20V44H22V47C22 47.2652 22.1054 47.5196 22.2929 47.7071C22.4804 47.8946 22.7348 48 23 48ZM20 42V32H22V35C22 35.2652 22.1054 35.5196 22.2929 35.7071C22.4804 35.8946 22.7348 36 23 36H29C29.2652 36 29.5196 35.8946 29.7071 35.7071C29.8946 35.5196 30 35.2652 30 35V32H32V42H20ZM24 32H28V34H24V32ZM10 32H14V34H10V32ZM8 32V35C8 35.2652 8.10536 35.5196 8.29289 35.7071C8.48043 35.8946 8.73478 36 9 36H15C15.2652 36 15.5196 35.8946 15.7071 35.7071C15.8946 35.5196 16 35.2652 16 35V32H18V42H6V32H8ZM10 44H14V46H10V44ZM8 44V47C8 47.2652 8.10536 47.5196 8.29289 47.7071C8.48043 47.8946 8.73478 48 9 48H15C15.2652 48 15.5196 47.8946 15.7071 47.7071C15.8946 47.5196 16 47.2652 16 47V44H18V54H6V44H8ZM32 56V58H6V56H32ZM24 16H28V18H24V16ZM22 16V19C22 19.2652 22.1054 19.5196 22.2929 19.7071C22.4804 19.8946 22.7348 20 23 20H29C29.2652 20 29.5196 19.8946 29.7071 19.7071C29.8946 19.5196 30 19.2652 30 19V16H32V26H20V16H22ZM10 4H14V6H10V4ZM8 4V7C8 7.26522 8.10536 7.51957 8.29289 7.70711C8.48043 7.89464 8.73478 8 9 8H15C15.2652 8 15.5196 7.89464 15.7071 7.70711C15.8946 7.51957 16 7.26522 16 7V4H18V14H6V4H8ZM2 2H4V58H2V2Z" fill="#22201E"/>
</svg>
